<svg width="18" height="19" viewBox="0 0 18 19" fill="none" xmlns="http://www.w3.org/2000/svg">
<path d="M9 9.78212L12.1819 12.9641L11.1213 14.0247L9.75 12.654V16.8428H8.25V12.6525L6.87868 14.0247L5.81802 12.9641L9 9.78212ZM9 1.84277C11.6951 1.84277 13.9158 3.87348 14.2156 6.48824C15.9643 6.96643 17.25 8.56697 17.25 10.4678C17.25 12.6194 15.6027 14.3862 13.5005 14.576L13.5 13.0928C13.5 10.6075 11.4853 8.59277 9 8.59277C6.5712 8.59277 4.59182 10.517 4.5031 12.9241L4.5 13.0928L4.50029 14.576C2.39772 14.3867 0.75 12.6197 0.75 10.4678C0.75 8.56697 2.03568 6.96643 3.78486 6.48836C4.08421 3.87348 6.30496 1.84277 9 1.84277Z" fill="#757A84"/>
</svg>
