<svg width="28" height="29" viewBox="0 0 28 29" fill="none" xmlns="http://www.w3.org/2000/svg">
<path d="M16.6334 18.1572C15.7171 17.0478 15.1667 15.6251 15.1667 14.0739C15.1667 10.5301 18.0395 7.65723 21.5833 7.65723C25.1272 7.65723 28 10.5301 28 14.0739C28 17.6178 25.1272 20.4906 21.5833 20.4906H6.41667C2.87283 20.4906 0 17.6178 0 14.0739C0 10.5301 2.87283 7.65723 6.41667 7.65723C9.9605 7.65723 12.8333 10.5301 12.8333 14.0739C12.8333 15.6251 12.2829 17.0478 11.3666 18.1572H16.6334ZM6.41667 18.1572C8.67183 18.1572 10.5 16.3291 10.5 14.0739C10.5 11.8187 8.67183 9.99056 6.41667 9.99056C4.1615 9.99056 2.33333 11.8187 2.33333 14.0739C2.33333 16.3291 4.1615 18.1572 6.41667 18.1572ZM21.5833 18.1572C23.8385 18.1572 25.6667 16.3291 25.6667 14.0739C25.6667 11.8187 23.8385 9.99056 21.5833 9.99056C19.3282 9.99056 17.5 11.8187 17.5 14.0739C17.5 16.3291 19.3282 18.1572 21.5833 18.1572Z" fill="white"/>
</svg>
