<svg width="14" height="14" viewBox="0 0 14 14" fill="none" xmlns="http://www.w3.org/2000/svg">
<path d="M12.25 10.1617V12.2244C12.25 12.5306 12.0132 12.7847 11.7078 12.8063C11.4526 12.8243 11.2445 12.8333 11.0833 12.8333C5.92865 12.8333 1.75 8.65468 1.75 3.49999C1.75 3.33883 1.75901 3.13067 1.77704 2.87554C1.79863 2.57009 2.05271 2.33333 2.35892 2.33333H4.42172C4.57145 2.33333 4.69686 2.44674 4.71189 2.59571C4.72539 2.72945 4.73794 2.83683 4.74954 2.91784C4.86754 3.74191 5.10856 4.52629 5.45341 5.25176C5.50876 5.36821 5.47266 5.50759 5.36775 5.58253L4.10874 6.48188C4.87522 8.2723 6.31102 9.70812 8.10145 10.4746L8.99914 9.21777C9.07503 9.1116 9.21608 9.07509 9.33392 9.13103C10.0593 9.4756 10.8436 9.71634 11.6676 9.83406C11.7481 9.84561 11.8548 9.85804 11.9876 9.87145C12.1366 9.8865 12.25 10.0119 12.25 10.1617Z" fill="#91ADFF"/>
<path d="M9.67497 5.56226L11.3835 5.56226L11.3836 6.72892L7.68335 6.72891L7.6834 3.02876L8.85005 3.02876L8.85001 4.7373L11.5665 2.02079L12.3915 2.84575L9.67497 5.56226Z" fill="#91ADFF"/>
</svg>
