<svg width="26" height="26" viewBox="0 0 26 26" fill="none" xmlns="http://www.w3.org/2000/svg">
<path d="M25.1501 18.967V23.7407C25.1501 24.4495 24.6021 25.0375 23.8953 25.0875C23.3048 25.1292 22.8231 25.15 22.4501 25.15C10.5207 25.15 0.850098 15.4794 0.850098 3.54998C0.850098 3.17698 0.870955 2.69525 0.91267 2.1048C0.962647 1.39791 1.55067 0.849976 2.25931 0.849976H7.03323C7.37975 0.849976 7.66997 1.11244 7.70476 1.45721C7.736 1.76672 7.76504 2.01521 7.79189 2.2027C8.06497 4.10985 8.62276 5.92511 9.42084 7.60407C9.54894 7.87355 9.46541 8.19612 9.2226 8.36956L6.30889 10.4509C8.08275 14.5945 11.4056 17.9174 15.5492 19.6913L17.6267 16.7825C17.8023 16.5368 18.1287 16.4523 18.4014 16.5818C20.0803 17.3792 21.8954 17.9364 23.8023 18.2088C23.9886 18.2355 24.2355 18.2643 24.5429 18.2954C24.8877 18.3302 25.1501 18.6204 25.1501 18.967Z" fill="white"/>
</svg>
