<svg width="34" height="34" viewBox="0 0 34 34" fill="none" xmlns="http://www.w3.org/2000/svg">
<g id="icons">
<path id="Vector" d="M13.7531 6.99414H20.4236L22.6472 9.21767H27.0942C27.7083 9.21767 28.206 9.71543 28.206 10.3294V25.8941C28.206 26.5082 27.7083 27.0059 27.0942 27.0059H7.08247C6.46846 27.0059 5.9707 26.5082 5.9707 25.8941V10.3294C5.9707 9.71543 6.46846 9.21767 7.08247 9.21767H11.5295L13.7531 6.99414ZM20.0722 24.0794L19.0775 22.0902C18.4791 22.3901 17.8034 22.5588 17.0884 22.5588C14.6323 22.5588 12.6413 20.5678 12.6413 18.1118H14.8648L12.462 13.3062C11.2018 14.5197 10.4178 16.2241 10.4178 18.1118C10.4178 21.7958 13.4043 24.7824 17.0884 24.7824C18.1609 24.7824 19.1744 24.5292 20.0722 24.0794ZM14.1045 12.1441L15.0992 14.1333C15.6976 13.8335 16.3733 13.6647 17.0884 13.6647C19.5443 13.6647 21.5354 15.6558 21.5354 18.1118H19.3119L21.7147 22.9174C22.9749 21.7039 23.7589 19.9995 23.7589 18.1118C23.7589 14.4277 20.7724 11.4412 17.0884 11.4412C16.0158 11.4412 15.0023 11.6943 14.1045 12.1441Z" fill="white"/>
</g>
</svg>
