<svg width="18" height="18" viewBox="0 0 18 18" fill="none" xmlns="http://www.w3.org/2000/svg">
<g id="icons">
<path id="Vector" d="M6.75 2.25H11.25L12.75 3.75H15.75C16.1642 3.75 16.5 4.08579 16.5 4.5V15C16.5 15.4142 16.1642 15.75 15.75 15.75H2.25C1.83579 15.75 1.5 15.4142 1.5 15V4.5C1.5 4.08579 1.83579 3.75 2.25 3.75H5.25L6.75 2.25ZM9 14.25C11.4853 14.25 13.5 12.2353 13.5 9.75C13.5 7.26472 11.4853 5.25 9 5.25C6.51472 5.25 4.5 7.26472 4.5 9.75C4.5 12.2353 6.51472 14.25 9 14.25ZM9 12.75C7.34314 12.75 6 11.4068 6 9.75C6 8.09317 7.34314 6.75 9 6.75C10.6568 6.75 12 8.09317 12 9.75C12 11.4068 10.6568 12.75 9 12.75Z" fill="#757A84"/>
</g>
</svg>
