<svg width="26" height="24" viewBox="0 0 26 24" fill="none" xmlns="http://www.w3.org/2000/svg">
<path fill-rule="evenodd" clip-rule="evenodd" d="M15.4301 0.166229H10.5701C5.20189 0.166229 0.850098 4.51802 0.850098 9.88623C0.850098 17.7837 9.3551 21.4287 15.4301 23.8587V19.6062C20.7983 19.6062 25.1501 15.2545 25.1501 9.88623C25.1501 4.51802 20.7983 0.166229 15.4301 0.166229ZM8.1401 11.1011C8.81112 11.1011 9.3551 10.5571 9.3551 9.8861C9.3551 9.21507 8.81112 8.6711 8.1401 8.6711C7.46907 8.6711 6.9251 9.21507 6.9251 9.8861C6.9251 10.5571 7.46907 11.1011 8.1401 11.1011ZM13.0001 11.1012C13.6711 11.1012 14.2151 10.5573 14.2151 9.88623C14.2151 9.2152 13.6711 8.67123 13.0001 8.67123C12.3291 8.67123 11.7851 9.2152 11.7851 9.88623C11.7851 10.5573 12.3291 11.1012 13.0001 11.1012ZM19.0751 9.88623C19.0751 10.5573 18.5311 11.1012 17.8601 11.1012C17.1891 11.1012 16.6451 10.5573 16.6451 9.88623C16.6451 9.2152 17.1891 8.67123 17.8601 8.67123C18.5311 8.67123 19.0751 9.2152 19.0751 9.88623Z" fill="white"/>
</svg>
