<svg width="18" height="19" viewBox="0 0 18 19" fill="none" xmlns="http://www.w3.org/2000/svg">
<g id="icons">
<path id="Subtract" fill-rule="evenodd" clip-rule="evenodd" d="M10.35 3.32422H7.65C4.66766 3.32422 2.25 5.74188 2.25 8.72422C2.25 13.1117 6.975 15.1367 10.35 16.4867V14.1242C13.3324 14.1242 15.75 11.7066 15.75 8.72422C15.75 5.74188 13.3324 3.32422 10.35 3.32422ZM6.3 9.39915C6.67279 9.39915 6.975 9.09694 6.975 8.72415C6.975 8.35135 6.67279 8.04915 6.3 8.04915C5.92721 8.04915 5.625 8.35135 5.625 8.72415C5.625 9.09694 5.92721 9.39915 6.3 9.39915ZM9 9.39922C9.37279 9.39922 9.675 9.09701 9.675 8.72422C9.675 8.35143 9.37279 8.04922 9 8.04922C8.62721 8.04922 8.325 8.35143 8.325 8.72422C8.325 9.09701 8.62721 9.39922 9 9.39922ZM12.375 8.72422C12.375 9.09701 12.0728 9.39922 11.7 9.39922C11.3272 9.39922 11.025 9.09701 11.025 8.72422C11.025 8.35143 11.3272 8.04922 11.7 8.04922C12.0728 8.04922 12.375 8.35143 12.375 8.72422Z" fill="#757A84"/>
</g>
</svg>
