<svg width="16" height="16" viewBox="0 0 16 16" fill="none" xmlns="http://www.w3.org/2000/svg">
<g clip-path="url(#clip0_1212_4407)">
<path d="M4.09998 13.2002C4.09998 11.1488 5.84606 9.48591 7.99998 9.48591C10.1539 9.48591 11.9 11.1488 11.9 13.2002H4.09998ZM7.99998 9.02162C6.38391 9.02162 5.07498 7.77502 5.07498 6.23591C5.07498 4.6968 6.38391 3.4502 7.99998 3.4502C9.61604 3.4502 10.925 4.6968 10.925 6.23591C10.925 7.77502 9.61604 9.02162 7.99998 9.02162Z" fill="#1B47C5"/>
<path fill-rule="evenodd" clip-rule="evenodd" d="M12.5002 12.5506H15.15C15.15 10.7727 13.6949 9.33154 11.9 9.33154C11.4308 9.33154 10.9848 9.43003 10.5819 9.60728C11.591 10.2745 12.3103 11.3237 12.5002 12.5506ZM10.6229 8.5719C10.9942 8.79848 11.4316 8.92916 11.9 8.92916C13.2467 8.92916 14.3375 7.84876 14.3375 6.51487C14.3375 5.18098 13.2467 4.10059 11.9 4.10059C11.5625 4.10059 11.241 4.16845 10.9488 4.29116C11.3427 4.84071 11.575 5.50861 11.575 6.2363C11.575 7.14661 11.2114 7.96336 10.6229 8.5719Z" fill="#1B47C5"/>
<path fill-rule="evenodd" clip-rule="evenodd" d="M5.05117 4.29116C4.75894 4.16845 4.4375 4.10059 4.09998 4.10059C2.75326 4.10059 1.66248 5.18098 1.66248 6.51487C1.66248 7.84876 2.75326 8.92916 4.09998 8.92916C4.56835 8.92916 5.00576 8.79848 5.3771 8.5719C4.78854 7.96336 4.42498 7.14661 4.42498 6.2363C4.42498 5.50861 4.6573 4.84071 5.05117 4.29116ZM5.41805 9.60728C5.0152 9.43003 4.5692 9.33154 4.09998 9.33154C2.30505 9.33154 0.849976 10.7727 0.849976 12.5506H3.49975C3.68963 11.3237 4.40896 10.2745 5.41805 9.60728Z" fill="#1B47C5"/>
</g>
<defs>
<clipPath id="clip0_1212_4407">
<rect width="15.6" height="15.6" fill="white" transform="translate(0.199951 0.200195)"/>
</clipPath>
</defs>
</svg>
