<svg width="54" height="54" viewBox="0 0 54 54" fill="none" xmlns="http://www.w3.org/2000/svg">
<path d="M13.5804 33.8299L10.0444 30.2939C9.51937 29.7689 9.48967 28.9274 9.97626 28.3668C10.3828 27.8985 10.7242 27.5263 11.0004 27.25C19.8369 18.4135 34.1635 18.4135 43 27.25C43.2763 27.5263 43.6177 27.8986 44.0242 28.3669C44.5108 28.9275 44.4811 29.7689 43.9562 30.2938L40.42 33.83C40.1633 34.0867 39.7539 34.1073 39.4727 33.8777C39.2203 33.6715 39.0148 33.509 38.856 33.39C37.241 32.1796 35.4832 31.2481 33.6484 30.5957C33.3539 30.4909 33.1769 30.1901 33.2282 29.8818L33.8448 26.1818C29.4616 24.4265 24.5389 24.4265 20.1556 26.1817L20.7713 29.8752C20.8232 30.1873 20.644 30.4917 20.3461 30.5978C18.5118 31.2507 16.7547 32.1825 15.1404 33.3931C14.9826 33.5113 14.7784 33.6729 14.5277 33.8776C14.2465 34.1072 13.8371 34.0866 13.5804 33.8299Z" fill="white"/>
</svg>
