<svg width="16" height="16" viewBox="0 0 16 16" fill="none" xmlns="http://www.w3.org/2000/svg">
<path d="M4.41699 3.70039V1.55059C4.41699 1.15482 4.73783 0.833984 5.13359 0.833984H10.8664C11.2622 0.833984 11.583 1.15482 11.583 1.55059V3.70039H15.166V5.13359H13.7328V14.4494C13.7328 14.8452 13.412 15.166 13.0162 15.166H2.98379C2.58802 15.166 2.26719 14.8452 2.26719 14.4494V5.13359H0.833984V3.70039H4.41699ZM9.01342 9.43299L10.2802 8.16625L9.26681 7.15283L8 8.41957L6.73319 7.15283L5.71979 8.16625L6.98658 9.43299L5.71979 10.6998L6.73319 11.7132L8 10.4464L9.26681 11.7132L10.2802 10.6998L9.01342 9.43299ZM5.8502 2.26719V3.70039H10.1498V2.26719H5.8502Z" fill="#DE5327"/>
</svg>
