<svg width="18" height="19" viewBox="0 0 18 19" fill="none" xmlns="http://www.w3.org/2000/svg">
<g id="icons">
<path id="Vector" d="M5.41699 5.04316V2.89336C5.41699 2.49759 5.73783 2.17676 6.13359 2.17676H11.8664C12.2622 2.17676 12.583 2.49759 12.583 2.89336V5.04316H16.166V6.47637H14.7328V15.7922C14.7328 16.188 14.412 16.5088 14.0162 16.5088H3.98379C3.58802 16.5088 3.26719 16.188 3.26719 15.7922V6.47637H1.83398V5.04316H5.41699ZM10.0134 10.7758L11.2802 9.50903L10.2668 8.49561L9 9.76234L7.73319 8.49561L6.71979 9.50903L7.98658 10.7758L6.71979 12.0426L7.73319 13.056L9 11.7892L10.2668 13.056L11.2802 12.0426L10.0134 10.7758ZM6.8502 3.60996V5.04316H11.1498V3.60996H6.8502Z" fill="#DE5327"/>
</g>
</svg>
