<svg width="16" height="16" viewBox="0 0 16 16" fill="none" xmlns="http://www.w3.org/2000/svg">
<path d="M11.3334 3.99998H14.6667V5.33331H13.3334V14C13.3334 14.3682 13.0349 14.6666 12.6667 14.6666H3.33337C2.96519 14.6666 2.66671 14.3682 2.66671 14V5.33331H1.33337V3.99998H4.66671V1.99998C4.66671 1.63179 4.96519 1.33331 5.33337 1.33331H10.6667C11.0349 1.33331 11.3334 1.63179 11.3334 1.99998V3.99998ZM12 5.33331H4.00004V13.3333H12V5.33331ZM6.00004 7.33331H7.33337V11.3333H6.00004V7.33331ZM8.66671 7.33331H10V11.3333H8.66671V7.33331ZM6.00004 2.66665V3.99998H10V2.66665H6.00004Z" fill="#B20000"/>
</svg>
