<svg width="217" height="2" viewBox="0 0 217 2" fill="none" xmlns="http://www.w3.org/2000/svg">
<path d="M-8.74228e-08 2L1.9375 2L1.9375 1.69382e-07L8.74228e-08 0L-8.74228e-08 2ZM5.8125 2L9.6875 2L9.6875 8.46908e-07L5.8125 5.08145e-07L5.8125 2ZM13.5625 2L17.4375 2L17.4375 1.52443e-06L13.5625 1.18567e-06L13.5625 2ZM21.3125 2L25.1875 2L25.1875 2.20196e-06L21.3125 1.8632e-06L21.3125 2ZM29.0625 2L32.9375 2L32.9375 2.87949e-06L29.0625 2.54072e-06L29.0625 2ZM36.8125 2L40.6875 2L40.6875 3.55701e-06L36.8125 3.21825e-06L36.8125 2ZM44.5625 2L48.4375 2L48.4375 4.23454e-06L44.5625 3.89578e-06L44.5625 2ZM52.3125 2L56.1875 2L56.1875 4.91207e-06L52.3125 4.5733e-06L52.3125 2ZM60.0625 2.00001L63.9375 2.00001L63.9375 5.58959e-06L60.0625 5.25083e-06L60.0625 2.00001ZM67.8125 2.00001L71.6875 2.00001L71.6875 6.26712e-06L67.8125 5.92836e-06L67.8125 2.00001ZM75.5625 2.00001L79.4375 2.00001L79.4375 6.94465e-06L75.5625 6.60588e-06L75.5625 2.00001ZM83.3125 2.00001L87.1875 2.00001L87.1875 7.62217e-06L83.3125 7.28341e-06L83.3125 2.00001ZM91.0625 2.00001L94.9375 2.00001L94.9375 8.2997e-06L91.0625 7.96094e-06L91.0625 2.00001ZM98.8125 2.00001L102.688 2.00001L102.688 8.97723e-06L98.8125 8.63846e-06L98.8125 2.00001ZM106.562 2.00001L108.5 2.00001L108.5 9.48537e-06L106.563 9.31599e-06L106.562 2.00001ZM108.5 2.00001L110.437 2.00001L110.438 9.65475e-06L108.5 9.48537e-06L108.5 2.00001ZM114.312 2.00001L118.187 2.00001L118.188 1.03323e-05L114.313 9.99352e-06L114.312 2.00001ZM122.062 2.00001L125.937 2.00001L125.938 1.10098e-05L122.063 1.0671e-05L122.062 2.00001ZM129.812 2.00001L133.687 2.00001L133.688 1.16873e-05L129.813 1.13486e-05L129.812 2.00001ZM137.562 2.00001L141.437 2.00001L141.438 1.23649e-05L137.563 1.20261e-05L137.562 2.00001ZM145.312 2.00001L149.187 2.00001L149.188 1.30424e-05L145.313 1.27036e-05L145.312 2.00001ZM153.062 2.00001L156.937 2.00001L156.938 1.37199e-05L153.063 1.33811e-05L153.062 2.00001ZM160.812 2.00001L164.687 2.00001L164.688 1.43974e-05L160.813 1.40587e-05L160.812 2.00001ZM168.562 2.00001L172.437 2.00002L172.438 1.5075e-05L168.563 1.47362e-05L168.562 2.00001ZM176.312 2.00002L180.187 2.00002L180.188 1.57525e-05L176.313 1.54137e-05L176.312 2.00002ZM184.062 2.00002L187.937 2.00002L187.938 1.643e-05L184.063 1.60913e-05L184.062 2.00002ZM191.812 2.00002L195.687 2.00002L195.688 1.71075e-05L191.813 1.67688e-05L191.812 2.00002ZM199.562 2.00002L203.437 2.00002L203.438 1.77851e-05L199.563 1.74463e-05L199.562 2.00002ZM207.312 2.00002L211.187 2.00002L211.188 1.84626e-05L207.313 1.81238e-05L207.312 2.00002ZM215.062 2.00002L217 2.00002L217 1.89707e-05L215.063 1.88014e-05L215.062 2.00002Z" fill="url(#paint0_linear_477_9184)"/>
<defs>
<linearGradient id="paint0_linear_477_9184" x1="221.822" y1="1.49971" x2="-4.36768e-08" y2="1.4997" gradientUnits="userSpaceOnUse">
<stop stop-color="#1B47C5"/>
<stop offset="0.722944" stop-color="#13C16B"/>
<stop offset="1" stop-color="#1B47C5"/>
</linearGradient>
</defs>
</svg>
