<svg width="17" height="16" viewBox="0 0 17 16" fill="none" xmlns="http://www.w3.org/2000/svg">
<g clip-path="url(#clip0_7_859)">
<path d="M12.6669 12.8645C11.4618 13.5836 10.0327 14.0001 8.50021 14.0001C4.68075 14.0001 1.50318 11.4136 0.83699 8.00012C1.14631 6.4152 1.99701 5.00858 3.202 3.95636L0.987171 1.87183L1.98891 0.929016L16.0132 14.1283L15.0115 15.0712L12.6669 12.8645ZM4.20438 4.89978C3.2631 5.70675 2.57677 6.77812 2.2828 8.00012C2.93265 10.7014 5.49992 12.6668 8.50021 12.6668C9.63312 12.6668 10.7043 12.3865 11.6339 11.8922L10.1972 10.54C9.70579 10.8314 9.1239 11.0001 8.50021 11.0001C6.73977 11.0001 5.31268 9.65692 5.31268 8.00012C5.31268 7.41305 5.49182 6.86538 5.80146 6.40293L4.20438 4.89978ZM9.14734 9.55198L6.85132 7.39105C6.77258 7.57972 6.72935 7.78512 6.72935 8.00012C6.72935 8.92058 7.52221 9.66678 8.50021 9.66678C8.72858 9.66678 8.94688 9.62605 9.14734 9.55198ZM14.7381 11.0617L13.7247 10.1078C14.1893 9.48452 14.5317 8.77238 14.7175 8.00012C14.0677 5.29877 11.5004 3.33342 8.50021 3.33342C7.90103 3.33342 7.31913 3.4118 6.76634 3.55877L5.64857 2.50675C6.53173 2.17971 7.49367 2.00009 8.50021 2.00009C12.3196 2.00009 15.4972 4.5866 16.1634 8.00012C15.9422 9.13318 15.4444 10.1752 14.7381 11.0617ZM8.30372 5.0057C8.36867 5.00198 8.43419 5.00009 8.50021 5.00009C10.2606 5.00009 11.6877 6.34324 11.6877 8.00012C11.6877 8.06218 11.6857 8.12385 11.6818 8.18498L8.30372 5.0057Z" fill="#A2A6AE"/>
</g>
<defs>
<clipPath id="clip0_7_859">
<rect width="17" height="16" fill="white"/>
</clipPath>
</defs>
</svg>
