<svg width="16" height="16" viewBox="0 0 16 16" fill="none" xmlns="http://www.w3.org/2000/svg">
<path d="M11 2C13.0251 2 14.6667 3.66667 14.6667 6C14.6667 10.6667 9.66671 13.3333 8.00004 14.3333C6.33337 13.3333 1.33337 10.6667 1.33337 6C1.33337 3.66667 3.00004 2 5.00004 2C6.24002 2 7.33337 2.66667 8.00004 3.33333C8.66671 2.66667 9.76004 2 11 2ZM8.62264 12.4025C9.21037 12.0323 9.74004 11.6637 10.2366 11.2686C12.2225 9.68867 13.3334 7.96233 13.3334 6C13.3334 4.42717 12.3087 3.33333 11 3.33333C10.2828 3.33333 9.50624 3.71274 8.94284 4.27614L8.00004 5.21895L7.05724 4.27614C6.49383 3.71274 5.71731 3.33333 5.00004 3.33333C3.70608 3.33333 2.66671 4.43767 2.66671 6C2.66671 7.96233 3.77755 9.68867 5.76347 11.2686C6.26004 11.6637 6.78971 12.0323 7.37744 12.4025C7.57644 12.5279 7.77411 12.6486 8.00004 12.7835C8.22597 12.6486 8.42364 12.5279 8.62264 12.4025Z" fill="#1B47C5"/>
</svg>
