<svg width="18" height="19" viewBox="0 0 18 19" fill="none" xmlns="http://www.w3.org/2000/svg">
<g clip-path="url(#clip0_1145_6397)">
<path d="M16.5 13.695C16.4993 15.8482 14.9862 17.6478 12.9654 18.0896L12.4869 16.6541C13.3899 16.5067 14.1574 15.9562 14.5987 15.1934H12.75C11.9215 15.1934 11.25 14.5218 11.25 13.6934V10.6934C11.25 9.86491 11.9215 9.19336 12.75 9.19336H14.9536C14.5845 6.23363 12.0597 3.94336 9 3.94336C5.94029 3.94336 3.41549 6.23363 3.04642 9.19336H5.25C6.07843 9.19336 6.75 9.86491 6.75 10.6934V13.6934C6.75 14.5218 6.07843 15.1934 5.25 15.1934H3C2.17157 15.1934 1.5 14.5218 1.5 13.6934V9.94336C1.5 5.80122 4.85786 2.44336 9 2.44336C13.1421 2.44336 16.5 5.80122 16.5 9.94336V10.6924V10.6934V13.6934V13.695Z" fill="#757A84"/>
</g>
<defs>
<clipPath id="clip0_1145_6397">
<rect width="18" height="18" fill="white" transform="translate(0 0.943359)"/>
</clipPath>
</defs>
</svg>
