<svg width="62" height="62" viewBox="0 0 62 62" fill="none" xmlns="http://www.w3.org/2000/svg">
<circle cx="42.7392" cy="44.5769" r="3.52174" transform="rotate(-180 42.7392 44.5769)" fill="white"/>
<circle cx="31.0002" cy="44.5769" r="3.52174" transform="rotate(-180 31.0002 44.5769)" fill="white"/>
<circle cx="19.261" cy="44.5769" r="3.52174" transform="rotate(-180 19.261 44.5769)" fill="white"/>
<circle cx="42.7392" cy="33.6091" r="3.52174" transform="rotate(-180 42.7392 33.6091)" fill="white"/>
<circle cx="31.0002" cy="33.6091" r="3.52174" transform="rotate(-180 31.0002 33.6091)" fill="white"/>
<circle cx="19.261" cy="33.6091" r="3.52174" transform="rotate(-180 19.261 33.6091)" fill="white"/>
<circle cx="42.7392" cy="22.6413" r="3.52174" transform="rotate(-180 42.7392 22.6413)" fill="white"/>
<circle cx="31.0002" cy="22.6413" r="3.52174" transform="rotate(-180 31.0002 22.6413)" fill="white"/>
<circle cx="19.261" cy="22.6413" r="3.52174" transform="rotate(-180 19.261 22.6413)" fill="white"/>
<circle cx="31.0002" cy="11.6736" r="3.52174" transform="rotate(-180 31.0002 11.6736)" fill="white"/>
</svg>
