<svg width="16" height="16" viewBox="0 0 16 16" fill="none" xmlns="http://www.w3.org/2000/svg">
<path d="M12.6667 6.66668H13.3333C13.7015 6.66668 14 6.96514 14 7.33334V14C14 14.3682 13.7015 14.6667 13.3333 14.6667H2.66667C2.29848 14.6667 2 14.3682 2 14V7.33334C2 6.96514 2.29848 6.66668 2.66667 6.66668H3.33333V6.00001C3.33333 3.42268 5.42267 1.33334 8 1.33334C10.5773 1.33334 12.6667 3.42268 12.6667 6.00001V6.66668ZM11.3333 6.66668V6.00001C11.3333 4.15906 9.84093 2.66668 8 2.66668C6.15905 2.66668 4.66667 4.15906 4.66667 6.00001V6.66668H11.3333ZM7.33333 9.33334V12H8.66667V9.33334H7.33333Z" fill="#A2A6AE"/>
</svg>
