<svg width="42" height="41" viewBox="0 0 42 41" fill="none" xmlns="http://www.w3.org/2000/svg">
<path fill-rule="evenodd" clip-rule="evenodd" d="M25.05 0.943848H16.95C8.00298 0.943848 0.75 8.19683 0.75 17.1438C0.75 30.3063 14.925 36.3813 25.05 40.4313V33.3438C33.9971 33.3438 41.25 26.0909 41.25 17.1438C41.25 8.19683 33.9971 0.943848 25.05 0.943848ZM12.9 19.1686C14.0184 19.1686 14.925 18.262 14.925 17.1436C14.925 16.0252 14.0184 15.1186 12.9 15.1186C11.7816 15.1186 10.875 16.0252 10.875 17.1436C10.875 18.262 11.7816 19.1686 12.9 19.1686ZM21 19.1688C22.1184 19.1688 23.025 18.2622 23.025 17.1438C23.025 16.0255 22.1184 15.1188 21 15.1188C19.8816 15.1188 18.975 16.0255 18.975 17.1438C18.975 18.2622 19.8816 19.1688 21 19.1688ZM31.125 17.1438C31.125 18.2622 30.2184 19.1688 29.1 19.1688C27.9816 19.1688 27.075 18.2622 27.075 17.1438C27.075 16.0255 27.9816 15.1188 29.1 15.1188C30.2184 15.1188 31.125 16.0255 31.125 17.1438Z" fill="white"/>
</svg>
