<svg width="24" height="25" viewBox="0 0 24 25" fill="none" xmlns="http://www.w3.org/2000/svg">
<rect y="0.342773" width="24" height="24" rx="12" fill="#F4F4F5"/>
<path d="M16.8001 14.7003V16.5862C16.8001 16.8662 16.5836 17.0985 16.3043 17.1183C16.0711 17.1348 15.8808 17.143 15.7334 17.143C11.0206 17.143 7.20007 13.3225 7.20007 8.60964C7.20007 8.46228 7.20831 8.27197 7.22479 8.0387C7.24454 7.75944 7.47684 7.54297 7.7568 7.54297H9.64279C9.77969 7.54297 9.89435 7.64666 9.90809 7.78286C9.92043 7.90514 9.9319 8.00331 9.94251 8.07738C10.0504 8.83082 10.2708 9.54796 10.586 10.2113C10.6367 10.3177 10.6037 10.4452 10.5077 10.5137L9.35663 11.3359C10.0574 12.9729 11.3702 14.2856 13.0071 14.9864L13.8279 13.8373C13.8972 13.7402 14.0262 13.7069 14.1339 13.758C14.7972 14.073 15.5143 14.2932 16.2676 14.4008C16.3412 14.4113 16.4387 14.4227 16.5602 14.435C16.6964 14.4487 16.8001 14.5634 16.8001 14.7003Z" fill="#454954"/>
</svg>
