<svg width="28" height="28" viewBox="0 0 28 28" fill="none" xmlns="http://www.w3.org/2000/svg">
<path d="M13.9998 2.52228C16.8812 2.52228 19.217 4.85808 19.217 7.73942V11.9131C19.217 14.7945 16.8812 17.1303 13.9998 17.1303C11.1184 17.1303 8.78266 14.7945 8.78266 11.9131V7.73942C8.78266 4.85808 11.1184 2.52228 13.9998 2.52228ZM4.66626 12.9566H6.76977C7.27607 16.4962 10.3202 19.2171 13.9998 19.2171C17.6794 19.2171 20.7235 16.4962 21.2299 12.9566H23.3333C22.8522 17.3093 19.396 20.7655 15.0433 21.2467V25.4777H12.9564V21.2467C8.60359 20.7655 5.14744 17.3093 4.66626 12.9566Z" fill="white"/>
</svg>
