<svg width="24" height="24" viewBox="0 0 24 24" fill="none" xmlns="http://www.w3.org/2000/svg">
<g id="icons">
<path id="Vector" d="M14.6873 7.62585L9.31321 12.9998C8.9422 13.3708 8.9422 13.9724 9.31321 14.3433C9.6842 14.7144 10.2857 14.7144 10.6567 14.3433L16.0308 8.96935C17.1437 7.85636 17.1437 6.05184 16.0308 4.93884C14.9177 3.82585 13.1132 3.82585 12.0002 4.93884L6.6262 10.3129C4.77121 12.1678 4.77121 15.1753 6.6262 17.0304C8.48119 18.8854 11.4887 18.8854 13.3437 17.0304L18.7177 11.6563L20.0612 12.9998L14.6873 18.3739C12.0902 20.9708 7.87969 20.9708 5.2827 18.3739C2.68571 15.7769 2.68571 11.5664 5.2827 8.96935L10.6567 3.59534C12.5117 1.74035 15.5193 1.74035 17.3742 3.59534C19.2292 5.45033 19.2292 8.45786 17.3742 10.3129L12.0002 15.6869C10.8873 16.7998 9.0827 16.7998 7.96971 15.6869C6.85671 14.5739 6.85671 12.7694 7.96971 11.6563L13.3437 6.28235L14.6873 7.62585Z" fill="#757A84"/>
</g>
</svg>
