<svg width="217" height="19" viewBox="0 0 217 19" fill="none" xmlns="http://www.w3.org/2000/svg">
<path d="M-8.74228e-08 11L1.9375 11L1.9375 9L8.74228e-08 9L-8.74228e-08 11ZM5.8125 11L9.6875 11L9.6875 9L5.8125 9L5.8125 11ZM13.5625 11L17.4375 11L17.4375 9L13.5625 9L13.5625 11ZM21.3125 11L25.1875 11L25.1875 9L21.3125 9L21.3125 11ZM29.0625 11L32.9375 11L32.9375 9L29.0625 9L29.0625 11ZM36.8125 11L40.6875 11L40.6875 9L36.8125 9L36.8125 11ZM44.5625 11L48.4375 11L48.4375 9L44.5625 9L44.5625 11ZM52.3125 11L56.1875 11L56.1875 9L52.3125 9L52.3125 11ZM60.0625 11L63.9375 11L63.9375 9.00001L60.0625 9.00001L60.0625 11ZM67.8125 11L71.6875 11L71.6875 9.00001L67.8125 9.00001L67.8125 11ZM75.5625 11L79.4375 11L79.4375 9.00001L75.5625 9.00001L75.5625 11ZM83.3125 11L87.1875 11L87.1875 9.00001L83.3125 9.00001L83.3125 11ZM91.0625 11L94.9375 11L94.9375 9.00001L91.0625 9.00001L91.0625 11ZM98.8125 11L102.688 11L102.688 9.00001L98.8125 9.00001L98.8125 11ZM106.562 11L108.5 11L108.5 9.00001L106.563 9.00001L106.562 11ZM108.5 11L110.437 11L110.438 9.00001L108.5 9.00001L108.5 11ZM114.312 11L118.187 11L118.188 9.00001L114.313 9.00001L114.312 11ZM122.062 11L125.937 11L125.938 9.00001L122.063 9.00001L122.062 11ZM129.812 11L133.687 11L133.688 9.00001L129.813 9.00001L129.812 11ZM137.562 11L141.437 11L141.438 9.00001L137.563 9.00001L137.562 11ZM145.312 11L149.187 11L149.188 9.00001L145.313 9.00001L145.312 11ZM153.062 11L156.937 11L156.938 9.00001L153.063 9.00001L153.062 11ZM160.812 11L164.687 11L164.688 9.00001L160.813 9.00001L160.812 11ZM168.562 11L172.437 11L172.438 9.00002L168.563 9.00001L168.562 11ZM176.312 11L180.187 11L180.188 9.00002L176.313 9.00002L176.312 11ZM184.062 11L187.937 11L187.938 9.00002L184.063 9.00002L184.062 11ZM191.812 11L195.687 11L195.688 9.00002L191.813 9.00002L191.812 11ZM199.562 11L203.437 11L203.438 9.00002L199.563 9.00002L199.562 11ZM207.312 11L211.187 11L211.188 9.00002L207.313 9.00002L207.312 11ZM215.062 11L217 11L217 9.00002L215.063 9.00002L215.062 11Z" fill="url(#paint0_linear_477_9183)"/>
<circle cx="54.5" cy="9.5" r="9.5" fill="#13C16B"/>
<defs>
<linearGradient id="paint0_linear_477_9183" x1="221.822" y1="10.4997" x2="-4.36768e-08" y2="10.4997" gradientUnits="userSpaceOnUse">
<stop stop-color="#1B47C5"/>
<stop offset="0.722944" stop-color="#13C16B"/>
<stop offset="1" stop-color="#1B47C5"/>
</linearGradient>
</defs>
</svg>
