<svg width="24" height="24" viewBox="0 0 24 24" fill="none" xmlns="http://www.w3.org/2000/svg">
<path d="M18.6796 17.3362L22.7482 21.4047L21.4047 22.7482L17.3362 18.6796C15.8733 19.85 14.018 20.5502 12.0002 20.5502C7.2806 20.5502 3.4502 16.7198 3.4502 12.0002C3.4502 7.2806 7.2806 3.4502 12.0002 3.4502C16.7198 3.4502 20.5502 7.2806 20.5502 12.0002C20.5502 14.018 19.85 15.8733 18.6796 17.3362ZM16.7737 16.6313C17.9353 15.4341 18.6502 13.801 18.6502 12.0002C18.6502 8.32607 15.6743 5.3502 12.0002 5.3502C8.32607 5.3502 5.3502 8.32607 5.3502 12.0002C5.3502 15.6743 8.32607 18.6502 12.0002 18.6502C13.801 18.6502 15.4341 17.9353 16.6313 16.7737L16.7737 16.6313Z" fill="#1B47C5"/>
</svg>
