<svg width="18" height="19" viewBox="0 0 18 19" fill="none" xmlns="http://www.w3.org/2000/svg">
<g id="icons">
<path id="Vector" d="M14.2733 13.5554L17.4853 16.7674L16.4246 17.828L13.2126 14.616C12.0577 15.54 10.593 16.0928 9 16.0928C5.274 16.0928 2.25 13.0688 2.25 9.34277C2.25 5.61677 5.274 2.59277 9 2.59277C12.726 2.59277 15.75 5.61677 15.75 9.34277C15.75 10.9358 15.1973 12.4004 14.2733 13.5554ZM12.7685 12.9989C13.6856 12.0537 14.25 10.7645 14.25 9.34277C14.25 6.44215 11.9006 4.09277 9 4.09277C6.09938 4.09277 3.75 6.44215 3.75 9.34277C3.75 12.2434 6.09938 14.5928 9 14.5928C10.4217 14.5928 11.7109 14.0284 12.6561 13.1113L12.7685 12.9989Z" fill="#757A84"/>
</g>
</svg>
