<svg width="24" height="24" viewBox="0 0 24 24" fill="none" xmlns="http://www.w3.org/2000/svg">
<path d="M19.031 17.6168L23.3137 21.8995L21.8995 23.3137L17.6168 19.031C16.0769 20.263 14.124 21 12 21C7.032 21 3 16.968 3 12C3 7.032 7.032 3 12 3C16.968 3 21 7.032 21 12C21 14.124 20.263 16.0769 19.031 17.6168ZM17.0247 16.8748C18.2475 15.6146 19 13.8956 19 12C19 8.1325 15.8675 5 12 5C8.1325 5 5 8.1325 5 12C5 15.8675 8.1325 19 12 19C13.8956 19 15.6146 18.2475 16.8748 17.0247L17.0247 16.8748Z" fill="#757A84"/>
</svg>
