<svg width="16" height="16" viewBox="0 0 16 16" fill="none" xmlns="http://www.w3.org/2000/svg">
<path d="M6.66667 2.66667H9.33333C12.2789 2.66667 14 5.00001 14 7.33334C14 9.66667 12.2789 12 9.33333 12V14.3333C6 13 2 11 2 7.33334C2 5.00001 3.72115 2.66667 6.66667 2.66667ZM8 10.6667H9.33333C11.5425 10.6667 12.6667 9 12.6667 7.33334C12.6667 5.66667 11.5425 4.00001 9.33333 4.00001H6.66667C4.45753 4.00001 3.33333 5.66667 3.33333 7.33334C3.33333 9 4.30805 10.6437 8 12.3199V10.6667Z" fill="#1B47C5"/>
<path d="M7.74759 7.11427L6.46159 7.11426L6.46159 5.78094L10.0237 5.78095L10.0237 9.34302L8.69035 9.34302L8.6904 8.05708L6.91915 9.82833L5.97634 8.88552L7.74759 7.11427Z" fill="#1B47C5"/>
</svg>
