<svg width="28" height="28" viewBox="0 0 28 28" fill="none" xmlns="http://www.w3.org/2000/svg">
<path d="M11.9901 4.38347C13.3001 4.10924 14.6686 4.10059 16.0087 4.38077C16.1826 5.51983 16.8534 6.57241 17.9289 7.19335C19.0044 7.81428 20.2515 7.86901 21.3248 7.45C22.2375 8.47053 22.9143 9.65998 23.3318 10.9316C22.4334 11.6517 21.8583 12.7582 21.8583 13.9991C21.8583 15.2408 22.4341 16.3478 23.3333 17.0679C23.1258 17.697 22.8511 18.3145 22.5068 18.9107C22.1625 19.5071 21.7651 20.0537 21.3241 20.548C20.2509 20.1292 19.0042 20.1841 17.9289 20.8049C16.8543 21.4253 16.1836 22.4768 16.0091 23.6148C14.6992 23.889 13.3307 23.8976 11.9905 23.6175C11.8167 22.4784 11.1458 21.4258 10.0703 20.8049C8.99481 20.1839 7.74779 20.1292 6.67443 20.5483C5.7617 19.5277 5.08496 18.3382 4.66746 17.0666C5.56578 16.3466 6.14099 15.24 6.14099 13.9991C6.14099 12.7575 5.56511 11.6504 4.66589 10.9303C4.87344 10.3012 5.14811 9.68381 5.4924 9.08748C5.83669 8.49114 6.23406 7.94457 6.67511 7.45027C7.74832 7.86898 8.99503 7.81415 10.0703 7.19335C11.1449 6.5729 11.8156 5.5215 11.9901 4.38347ZM13.9996 16.9461C15.6272 16.9461 16.9466 15.6267 16.9466 13.9991C16.9466 12.3716 15.6272 11.0521 13.9996 11.0521C12.372 11.0521 11.0526 12.3716 11.0526 13.9991C11.0526 15.6267 12.372 16.9461 13.9996 16.9461Z" fill="#91ADFF"/>
</svg>
