<svg width="18" height="18" viewBox="0 0 18 18" fill="none" xmlns="http://www.w3.org/2000/svg">
<g id="icons">
<path id="Vector" d="M10.1819 12.9536L6.34932 10.863C5.87484 11.334 5.2214 11.625 4.5 11.625C3.05025 11.625 1.875 10.4497 1.875 9C1.875 7.55025 3.05025 6.375 4.5 6.375C5.22136 6.375 5.87476 6.66597 6.34923 7.13695L10.1819 5.04641C10.1447 4.87015 10.125 4.68737 10.125 4.5C10.125 3.05025 11.3003 1.875 12.75 1.875C14.1997 1.875 15.375 3.05025 15.375 4.5C15.375 5.94975 14.1997 7.125 12.75 7.125C12.0286 7.125 11.3752 6.83401 10.9007 6.36299L7.06803 8.45347C7.10536 8.6298 7.125 8.81257 7.125 9C7.125 9.18735 7.10537 9.37013 7.06806 9.54638L10.9007 11.637C11.3752 11.166 12.0287 10.875 12.75 10.875C14.1997 10.875 15.375 12.0503 15.375 13.5C15.375 14.9497 14.1997 16.125 12.75 16.125C11.3003 16.125 10.125 14.9497 10.125 13.5C10.125 13.3126 10.1447 13.1298 10.1819 12.9536Z" fill="#757A84"/>
</g>
</svg>
