<svg width="24" height="25" viewBox="0 0 24 25" fill="none" xmlns="http://www.w3.org/2000/svg">
<rect y="0.342773" width="24" height="24" rx="12" fill="#F4F4F5"/>
<path d="M12.7865 17.3822C12.5303 17.4218 12.2678 17.4424 12.0006 17.4424C9.18393 17.4424 6.90059 15.159 6.90059 12.3424C6.90059 12.0751 6.92114 11.8126 6.96077 11.5564C6.73075 11.119 6.60059 10.6209 6.60059 10.0924C6.60059 8.35269 8.01089 6.94238 9.75059 6.94238C10.2791 6.94238 10.7772 7.07255 11.2147 7.30257C11.4708 7.26294 11.7333 7.24238 12.0006 7.24238C14.8172 7.24238 17.1006 9.52573 17.1006 12.3424C17.1006 12.6097 17.08 12.8721 17.0404 13.1283C17.2704 13.5657 17.4006 14.0638 17.4006 14.5924C17.4006 16.3321 15.9903 17.7424 14.2506 17.7424C13.7221 17.7424 13.2239 17.6122 12.7865 17.3822ZM12.0319 15.4357L12.0076 15.4361C13.7312 15.4361 14.5895 14.6046 14.5895 13.4903C14.5895 12.7713 14.2587 12.0076 12.9542 11.7155L11.7644 11.4514C11.3113 11.3484 10.7911 11.2111 10.7911 10.7822C10.7911 10.3534 11.1625 10.0546 11.8253 10.0546C13.1636 10.0546 13.0413 10.9712 13.7042 10.9712C14.0494 10.9712 14.3598 10.766 14.3598 10.4132C14.3598 9.59153 13.0413 8.97368 11.9264 8.97368C10.7135 8.97368 9.42252 9.48848 9.42252 10.8596C9.42252 11.5189 9.65852 12.2218 10.958 12.5476L12.5716 12.9504C13.0612 13.0714 13.1825 13.3455 13.1825 13.5934C13.1825 14.0056 12.7724 14.4083 12.0319 14.4083C10.5817 14.4083 10.7848 13.2937 10.0073 13.2937C9.65897 13.2937 9.40583 13.5326 9.40583 13.8769C9.40583 14.5451 10.2167 15.4357 12.0319 15.4357Z" fill="#454954"/>
</svg>
