<svg width="28" height="28" viewBox="0 0 28 28" fill="none" xmlns="http://www.w3.org/2000/svg">
<path d="M10.3704 18.6668H5.83341C5.18909 18.6668 4.66675 18.1445 4.66675 17.5001V10.5001C4.66675 9.85576 5.18909 9.33343 5.83341 9.33343H10.3704L16.5473 4.27961C16.7967 4.07561 17.1642 4.11236 17.3682 4.36169C17.4535 4.46591 17.5 4.59643 17.5 4.73108V23.269C17.5 23.5913 17.2388 23.8524 16.9167 23.8524C16.7821 23.8524 16.6515 23.8058 16.5473 23.7205L10.3704 18.6668ZM22.007 19.3563L20.348 17.6973C21.4541 16.8439 22.1667 15.5052 22.1667 14.0001C22.1667 12.3313 21.2909 10.8672 19.9737 10.0423L21.6521 8.36392C23.3796 9.63862 24.5 11.6885 24.5 14.0001C24.5 16.1492 23.5315 18.0722 22.007 19.3563Z" fill="white"/>
</svg>
