<svg width="15" height="15" viewBox="0 0 15 15" fill="none" xmlns="http://www.w3.org/2000/svg">
<path d="M6.17125 0.902553C5.23688 0.600079 4.22112 1.02081 3.77429 1.89541L3.2371 2.94686C3.17328 3.07179 3.07167 3.1734 2.94674 3.23723L1.89529 3.77441C1.02069 4.22125 0.599957 5.237 0.902431 6.17137L1.26607 7.29471C1.30928 7.42817 1.30928 7.57191 1.26607 7.70537L0.902431 8.82871C0.599957 9.76311 1.02069 10.7788 1.89529 11.2257L2.94674 11.7628C3.07167 11.8267 3.17328 11.9283 3.2371 12.0532L3.77429 13.1047C4.22112 13.9793 5.23688 14.4 6.17125 14.0976L7.29458 13.7339C7.42805 13.6907 7.57178 13.6907 7.70525 13.7339L8.82858 14.0976C9.76298 14.4 10.7787 13.9793 11.2256 13.1047L11.7627 12.0532C11.8266 11.9283 11.9282 11.8267 12.0531 11.7628L13.1046 11.2257C13.9792 10.7788 14.3999 9.76311 14.0975 8.82871L13.7338 7.70537C13.6906 7.57191 13.6906 7.42817 13.7338 7.29471L14.0975 6.17137C14.3999 5.237 13.9792 4.22125 13.1046 3.77441L12.0531 3.23723C11.9282 3.1734 11.8266 3.07179 11.7627 2.94686L11.2256 1.89541C10.7787 1.02081 9.76298 0.600079 8.82858 0.902553L7.70525 1.26619C7.57178 1.30939 7.42805 1.3094 7.29458 1.26619L6.17125 0.902553ZM4.00643 7.33824L4.94924 6.39537L6.83485 8.28104L10.6061 4.50981L11.5489 5.45261L6.83485 10.1666L4.00643 7.33824Z" fill="#13C16B"/>
</svg>
