<svg width="28" height="28" viewBox="0 0 28 28" fill="none" xmlns="http://www.w3.org/2000/svg">
<path d="M24.5 19.1567V23.2821C24.5 23.8946 24.0264 24.4028 23.4156 24.446C22.9053 24.482 22.489 24.5 22.1667 24.5C11.8573 24.5 3.5 16.1427 3.5 5.83333C3.5 5.51099 3.51803 5.09468 3.55408 4.58442C3.59727 3.97353 4.10543 3.5 4.71784 3.5H8.84345C9.14291 3.5 9.39372 3.72682 9.42378 4.02477C9.45078 4.29225 9.47588 4.507 9.49908 4.66902C9.73507 6.31717 10.2171 7.88592 10.9068 9.33687C11.0175 9.56976 10.9453 9.84852 10.7355 9.9984L8.21747 11.7971C9.75044 15.3779 12.622 18.2496 16.2029 19.7826L17.9983 17.2689C18.1501 17.0565 18.4322 16.9835 18.6678 17.0954C20.1187 17.7845 21.6873 18.266 23.3352 18.5015C23.4962 18.5246 23.7096 18.5494 23.9752 18.5762C24.2732 18.6063 24.5 18.8572 24.5 19.1567Z" fill="#91ADFF"/>
<path d="M18.6667 4.66666C21.244 4.66666 23.3333 6.756 23.3333 9.33333C23.3333 11.9106 21.244 14 18.6667 14C17.8724 14 17.1245 13.8016 16.4697 13.4516L14 14L14.5489 11.5312C14.1986 10.8763 14 10.128 14 9.33333C14 6.756 16.0893 4.66666 18.6667 4.66666ZM19.1333 7H18.2V10.2667H21V9.33333H19.1333V7Z" fill="#91ADFF"/>
</svg>
