<svg width="28" height="28" viewBox="0 0 28 28" fill="none" xmlns="http://www.w3.org/2000/svg">
<path d="M24.5 20.3234V24.4488C24.5 25.0613 24.0264 25.5695 23.4156 25.6127C22.9053 25.6487 22.489 25.6667 22.1667 25.6667C11.8573 25.6667 3.5 17.3094 3.5 7.00002C3.5 6.67768 3.51803 6.26137 3.55408 5.7511C3.59727 5.14021 4.10543 4.66669 4.71784 4.66669H8.84345C9.14291 4.66669 9.39372 4.89351 9.42378 5.19145C9.45078 5.45894 9.47588 5.67368 9.49908 5.83571C9.73507 7.48386 10.2171 9.05261 10.9068 10.5036C11.0175 10.7364 10.9453 11.0152 10.7355 11.1651L8.21747 12.9638C9.75044 16.5446 12.622 19.4163 16.2029 20.9493L17.9983 18.4356C18.1501 18.2232 18.4322 18.1502 18.6678 18.2621C20.1187 18.9512 21.6873 19.4327 23.3352 19.6682C23.4962 19.6913 23.7096 19.7161 23.9752 19.7429C24.2732 19.773 24.5 20.0239 24.5 20.3234Z" fill="white"/>
<path d="M19.9749 7.19998L16.5577 7.19997L16.5577 4.86665L23.9581 4.86667L23.958 12.267L21.6247 12.267L21.6248 8.8499L16.1918 14.2829L14.5419 12.633L19.9749 7.19998Z" fill="white"/>
</svg>
