<svg width="28" height="29" viewBox="0 0 28 29" fill="none" xmlns="http://www.w3.org/2000/svg">
<path d="M18.3796 20.4378C17.3579 21.0158 16.2106 21.3978 14.989 21.5329V25.5474H13.009V21.5329C8.87888 21.0763 5.59957 17.797 5.14303 13.667H7.1389C7.61929 17.0254 10.5076 19.6072 13.999 19.6072C15.0386 19.6072 16.0248 19.3783 16.9099 18.968L15.3751 17.4332C14.9382 17.5595 14.4765 17.6271 13.999 17.6271C11.265 17.6271 9.04879 15.4108 9.04879 12.6769V11.1069L3.49805 5.5562L4.89817 4.15608L24.4999 23.7578L23.0997 25.1579L18.3796 20.4378ZM21.3 17.7859L19.872 16.3578C20.3753 15.5563 20.7192 14.6445 20.8591 13.667H22.8549C22.6868 15.1882 22.1356 16.594 21.3 17.7859ZM18.4201 14.9059L9.72755 6.21336C10.5874 4.74939 12.1784 3.7666 13.999 3.7666C16.7329 3.7666 18.9492 5.98287 18.9492 8.71678V12.6769C18.9492 13.4787 18.7585 14.236 18.4201 14.9059Z" fill="white"/>
</svg>
