<svg width="28" height="29" viewBox="0 0 28 29" fill="none" xmlns="http://www.w3.org/2000/svg">
<path d="M19.8333 11.3904L25.9155 7.13289C26.1794 6.94814 26.5431 7.01233 26.7278 7.27626C26.7964 7.37431 26.8333 7.49109 26.8333 7.61078V21.7034C26.8333 22.0255 26.5721 22.2867 26.25 22.2867C26.1303 22.2867 26.0135 22.2498 25.9155 22.1812L19.8333 17.9237V22.8237C19.8333 23.4681 19.311 23.9904 18.6666 23.9904H2.33329C1.68897 23.9904 1.16663 23.4681 1.16663 22.8237V6.4904C1.16663 5.84607 1.68897 5.32373 2.33329 5.32373H18.6666C19.311 5.32373 19.8333 5.84607 19.8333 6.4904V11.3904ZM5.83329 9.9904V12.3237H8.16663V9.9904H5.83329Z" fill="white"/>
</svg>
