<svg width="38" height="39" viewBox="0 0 38 39" fill="none" xmlns="http://www.w3.org/2000/svg">
<path d="M23.75 16.9966L28.7027 13.5298C28.9176 13.3794 29.2138 13.4316 29.3642 13.6466C29.42 13.7264 29.45 13.8215 29.45 13.919V25.3944C29.45 25.6566 29.2373 25.8694 28.975 25.8694C28.8776 25.8694 28.7825 25.8393 28.7027 25.7835L23.75 22.3166V26.3066C23.75 26.8313 23.3247 27.2566 22.8 27.2566H9.50005C8.97538 27.2566 8.55005 26.8313 8.55005 26.3066V13.0066C8.55005 12.482 8.97538 12.0566 9.50005 12.0566H22.8C23.3247 12.0566 23.75 12.482 23.75 13.0066V16.9966ZM12.35 15.8566V17.7566H14.25V15.8566H12.35Z" fill="#1B47C5"/>
</svg>
