<svg width="34" height="34" viewBox="0 0 34 34" fill="none" xmlns="http://www.w3.org/2000/svg">
<g id="icons">
<path id="Vector 437 (Stroke)" fill-rule="evenodd" clip-rule="evenodd" d="M18.6416 29.5073L10.4448 6.67358L12.649 5.88232L20.8458 28.7161L18.6416 29.5073Z" fill="white"/>
<path id="Subtract" fill-rule="evenodd" clip-rule="evenodd" d="M21.5303 27.3555H22.0869C22.7336 27.3555 23.2578 26.8313 23.2578 26.1845V21.2665L29.3624 25.5397C29.4608 25.6085 29.578 25.6455 29.6981 25.6455C30.0214 25.6455 30.2836 25.3834 30.2836 25.0601V10.9156C30.2836 10.7955 30.2466 10.6782 30.1778 10.5798C29.9924 10.3149 29.6273 10.2505 29.3624 10.4359L23.2578 14.7091V9.79108C23.2578 9.14438 22.7336 8.62012 22.0869 8.62012H14.8048L21.5303 27.3555ZM5.69342 8.62012H9.97259L16.6981 27.3555H5.69342C5.04672 27.3555 4.52246 26.8313 4.52246 26.1845V9.79108C4.52246 9.14438 5.04672 8.62012 5.69342 8.62012Z" fill="white"/>
</g>
</svg>
