<svg width="52" height="30" viewBox="0 0 52 30" fill="none" xmlns="http://www.w3.org/2000/svg">
<path d="M40.3751 16.5984C40.6937 16.5907 40.9971 16.4602 41.2224 16.2338C41.4478 16.0075 41.5778 15.7028 41.5854 15.3828V14.5711C41.5854 14.2487 41.4579 13.9395 41.2309 13.7115C41.0039 13.4835 40.6961 13.3555 40.3751 13.3555C40.0541 13.3555 39.7462 13.4835 39.5192 13.7115C39.2922 13.9395 39.1647 14.2487 39.1647 14.5711V15.3828C39.1724 15.7028 39.3023 16.0075 39.5277 16.2338C39.753 16.4602 40.0565 16.5907 40.3751 16.5984Z" fill="#91ADFF"/>
<path d="M45.7896 16.5984C46.1082 16.5907 46.4116 16.4602 46.637 16.2338C46.8623 16.0075 46.9923 15.7028 47 15.3828V14.5711C47 14.2487 46.8725 13.9395 46.6455 13.7115C46.4185 13.4835 46.1106 13.3555 45.7896 13.3555C45.4686 13.3555 45.1607 13.4835 44.9338 13.7115C44.7068 13.9395 44.5792 14.2487 44.5792 14.5711V15.3828C44.5869 15.7028 44.7169 16.0075 44.9422 16.2338C45.1676 16.4602 45.471 16.5907 45.7896 16.5984Z" fill="#91ADFF"/>
<path d="M50.7896 16.5984C51.1082 16.5907 51.4116 16.4602 51.637 16.2338C51.8623 16.0075 51.9923 15.7028 52 15.3828V14.5711C52 14.2487 51.8725 13.9395 51.6455 13.7115C51.4185 13.4835 51.1106 13.3555 50.7896 13.3555C50.4686 13.3555 50.1607 13.4835 49.9338 13.7115C49.7068 13.9395 49.5792 14.2487 49.5792 14.5711V15.3828C49.5869 15.7028 49.7169 16.0075 49.9422 16.2338C50.1676 16.4602 50.471 16.5907 50.7896 16.5984Z" fill="#91ADFF"/>
<path d="M35.5314 16.1925C35.852 16.1717 36.16 16.0592 36.4189 15.8682L36.5813 15.707C36.6114 15.6749 36.6341 15.6364 36.6478 15.5945C36.6615 15.5526 36.6659 15.5081 36.6606 15.4643C36.6606 15.3827 36.7418 15.3012 36.7418 15.2196V14.7398C36.7474 14.6958 36.743 14.6511 36.7289 14.6091C36.7148 14.5671 36.6915 14.5288 36.6606 14.4971C36.6606 14.4155 36.5813 14.334 36.5813 14.2524C36.5001 14.1728 36.5001 14.0912 36.4189 14.0912C36.2739 13.9437 36.0934 13.8363 35.8949 13.7794C35.6964 13.7226 35.4866 13.7183 35.2859 13.7669C35.2419 13.7615 35.1971 13.7659 35.155 13.7801C35.1128 13.7942 35.0744 13.8175 35.0424 13.8485C34.9631 13.8485 34.8819 13.9281 34.8007 13.9281C34.7588 13.9313 34.7195 13.9495 34.69 13.9795C34.6605 14.0095 34.6428 14.0492 34.6402 14.0912L34.4778 14.2524C34.4778 14.334 34.3966 14.4155 34.3966 14.4971C34.3966 14.5786 34.3173 14.6583 34.3173 14.7398V15.2253C34.3118 15.2694 34.3161 15.3142 34.3298 15.3565C34.3435 15.3988 34.3663 15.4375 34.3966 15.47C34.3966 15.5496 34.4778 15.6312 34.4778 15.7127L34.6402 15.8739C34.9008 16.0635 35.2101 16.1741 35.5314 16.1925Z" fill="#91ADFF"/>
<path d="M30.6881 21.8691C31.0067 21.8614 31.3101 21.7309 31.5354 21.5045C31.7608 21.2782 31.8908 20.9735 31.8984 20.6535V9.30132C31.8861 8.98698 31.7531 8.68964 31.5272 8.47162C31.3014 8.25361 31.0003 8.13184 30.6871 8.13184C30.3739 8.13184 30.0728 8.25361 29.847 8.47162C29.6212 8.68964 29.4882 8.98698 29.4758 9.30132V20.6535C29.4839 20.9736 29.6143 21.2784 29.84 21.5047C30.0656 21.731 30.3693 21.8614 30.6881 21.8691Z" fill="#91ADFF"/>
<path d="M20.9996 25.929C21.3182 25.9213 21.6216 25.7907 21.847 25.5644C22.0723 25.3381 22.2023 25.0333 22.21 24.7133V5.25762C22.21 4.93522 22.0824 4.62602 21.8555 4.39804C21.6285 4.17007 21.3206 4.04199 20.9996 4.04199C20.6786 4.04199 20.3707 4.17007 20.1437 4.39804C19.9167 4.62602 19.7892 4.93522 19.7892 5.25762V24.7077C19.7954 25.0286 19.9248 25.3348 20.1503 25.5623C20.3758 25.7899 20.68 25.9212 20.9996 25.929Z" fill="#91ADFF"/>
<path d="M25.8429 29.9783C26.1619 29.9701 26.4655 29.8392 26.6911 29.6126C26.9167 29.386 27.047 29.0811 27.0552 28.7607V1.1939C27.0428 0.879553 26.9098 0.582214 26.684 0.364199C26.4582 0.146184 26.1571 0.0244141 25.8439 0.0244141C25.5306 0.0244141 25.2295 0.146184 25.0037 0.364199C24.7779 0.582214 24.6449 0.879553 24.6325 1.1939V28.7607C24.6402 29.0809 24.7701 29.3859 24.9954 29.6125C25.2207 29.8391 25.5241 29.9701 25.8429 29.9783Z" fill="#91ADFF"/>
<path d="M16.1563 21.0592C16.4751 21.051 16.7785 20.92 17.0038 20.6934C17.2291 20.4668 17.359 20.1618 17.3667 19.8416V10.1128C17.3543 9.7985 17.2213 9.50116 16.9955 9.28314C16.7697 9.06513 16.4686 8.94336 16.1554 8.94336C15.8421 8.94336 15.5411 9.06513 15.3153 9.28314C15.0894 9.50116 14.9564 9.7985 14.9441 10.1128V19.8416C14.9522 20.162 15.0825 20.4669 15.3081 20.6935C15.5337 20.9201 15.8374 21.051 16.1563 21.0592Z" fill="#91ADFF"/>
<path d="M11.3126 18.22C11.6312 18.2123 11.9346 18.0817 12.16 17.8554C12.3853 17.6291 12.5153 17.3244 12.5229 17.0044V12.9498C12.5106 12.6354 12.3776 12.3381 12.1518 12.1201C11.9259 11.902 11.6249 11.7803 11.3116 11.7803C10.9984 11.7803 10.6973 11.902 10.4715 12.1201C10.2457 12.3381 10.1127 12.6354 10.1003 12.9498V17.0044C10.108 17.3247 10.2382 17.6297 10.464 17.8561C10.6897 18.0824 10.9936 18.2128 11.3126 18.22Z" fill="#91ADFF"/>
<path d="M6.46745 19.0323C6.78623 19.0246 7.08987 18.8941 7.31553 18.6678C7.54118 18.4416 7.67157 18.1368 7.67972 17.8167V12.1406C7.68616 11.9768 7.6596 11.8133 7.60163 11.6601C7.54365 11.5069 7.45546 11.3669 7.34235 11.2488C7.22923 11.1306 7.09351 11.0366 6.94334 10.9723C6.79316 10.9081 6.63162 10.875 6.46839 10.875C6.30517 10.875 6.14363 10.9081 5.99345 10.9723C5.84328 11.0366 5.70756 11.1306 5.59444 11.2488C5.48133 11.3669 5.39314 11.5069 5.33517 11.6601C5.2772 11.8133 5.25063 11.9768 5.25707 12.1406V17.8167C5.26474 18.1366 5.39472 18.4414 5.62007 18.6677C5.84542 18.894 6.14885 19.0246 6.46745 19.0323Z" fill="#91ADFF"/>
<path d="M1.63142 20.2399C1.95002 20.2322 2.25344 20.1017 2.47879 19.8754C2.70414 19.649 2.83413 19.3443 2.8418 19.0243V10.9227C2.8418 10.763 2.81049 10.6049 2.74966 10.4575C2.68883 10.31 2.59968 10.176 2.48729 10.0631C2.37489 9.9502 2.24146 9.86066 2.09461 9.79957C1.94776 9.73848 1.79037 9.70703 1.63142 9.70703C1.47247 9.70703 1.31507 9.73848 1.16822 9.79957C1.02137 9.86066 0.887941 9.9502 0.775547 10.0631C0.663153 10.176 0.574 10.31 0.513173 10.4575C0.452346 10.6049 0.421036 10.763 0.421036 10.9227V19.0319C0.430608 19.3505 0.56143 19.6534 0.786582 19.8781C1.01173 20.1028 1.31409 20.2323 1.63142 20.2399Z" fill="#91ADFF"/>
</svg>
