<svg width="86" height="31" viewBox="0 0 86 31" fill="none" xmlns="http://www.w3.org/2000/svg">
<g id="Group 15">
<g id="Group 10">
<path id="Vector" d="M73.7957 17.2771C74.1143 17.2694 74.4178 17.1389 74.6431 16.9125C74.8685 16.6862 74.9984 16.3815 75.0061 16.0615V15.2498C75.0061 14.9274 74.8786 14.6182 74.6516 14.3902C74.4246 14.1623 74.1167 14.0342 73.7957 14.0342C73.4747 14.0342 73.1668 14.1623 72.9399 14.3902C72.7129 14.6182 72.5853 14.9274 72.5853 15.2498V16.0615C72.593 16.3815 72.723 16.6862 72.9484 16.9125C73.1737 17.1389 73.4771 17.2694 73.7957 17.2771Z" fill="#A2A6AE"/>
<path id="Vector_2" d="M79.2103 17.2771C79.5289 17.2694 79.8323 17.1389 80.0577 16.9125C80.283 16.6862 80.413 16.3815 80.4207 16.0615V15.2498C80.4207 14.9274 80.2931 14.6182 80.0661 14.3902C79.8392 14.1623 79.5313 14.0342 79.2103 14.0342C78.8893 14.0342 78.5814 14.1623 78.3544 14.3902C78.1274 14.6182 77.9999 14.9274 77.9999 15.2498V16.0615C78.0076 16.3815 78.1376 16.6862 78.3629 16.9125C78.5883 17.1389 78.8917 17.2694 79.2103 17.2771Z" fill="#A2A6AE"/>
<path id="Vector_3" d="M84.2103 17.2771C84.5289 17.2694 84.8323 17.1389 85.0577 16.9125C85.283 16.6862 85.413 16.3815 85.4207 16.0615V15.2498C85.4207 14.9274 85.2931 14.6182 85.0661 14.3902C84.8392 14.1623 84.5313 14.0342 84.2103 14.0342C83.8893 14.0342 83.5814 14.1623 83.3544 14.3902C83.1274 14.6182 82.9999 14.9274 82.9999 15.2498V16.0615C83.0076 16.3815 83.1376 16.6862 83.3629 16.9125C83.5883 17.1389 83.8917 17.2694 84.2103 17.2771Z" fill="#A2A6AE"/>
<path id="Vector_4" d="M68.9523 16.8712C69.2729 16.8504 69.5809 16.7379 69.8398 16.5469L70.0022 16.3857C70.0323 16.3536 70.055 16.3152 70.0687 16.2732C70.0824 16.2313 70.0868 16.1868 70.0815 16.143C70.0815 16.0614 70.1627 15.9799 70.1627 15.8983V15.4185C70.1683 15.3745 70.1639 15.3299 70.1498 15.2878C70.1357 15.2458 70.1124 15.2075 70.0815 15.1758C70.0815 15.0942 70.0022 15.0127 70.0022 14.9311C69.921 14.8515 69.921 14.7699 69.8398 14.7699C69.6948 14.6224 69.5143 14.515 69.3158 14.4582C69.1173 14.4013 68.9075 14.397 68.7068 14.4457C68.6628 14.4402 68.618 14.4447 68.5759 14.4588C68.5337 14.4729 68.4953 14.4963 68.4633 14.5272C68.384 14.5272 68.3028 14.6069 68.2216 14.6069C68.1797 14.61 68.1404 14.6282 68.1109 14.6582C68.0814 14.6882 68.0637 14.7279 68.0611 14.7699L67.8987 14.9311C67.8987 15.0127 67.8175 15.0942 67.8175 15.1758C67.8175 15.2573 67.7382 15.337 67.7382 15.4185V15.904C67.7327 15.9482 67.737 15.9929 67.7507 16.0352C67.7644 16.0775 67.7872 16.1162 67.8175 16.1487C67.8175 16.2283 67.8987 16.3099 67.8987 16.3914L68.0611 16.5526C68.3217 16.7423 68.631 16.8528 68.9523 16.8712Z" fill="#A2A6AE"/>
<path id="Vector_5" d="M64.109 22.5478C64.4276 22.5401 64.731 22.4096 64.9563 22.1833C65.1817 21.9569 65.3117 21.6522 65.3193 21.3322V9.98003C65.307 9.66569 65.1739 9.36835 64.9481 9.15033C64.7223 8.93232 64.4212 8.81055 64.108 8.81055C63.7948 8.81055 63.4937 8.93232 63.2679 9.15033C63.0421 9.36835 62.9091 9.66569 62.8967 9.98003V21.3322C62.9048 21.6524 63.0352 21.9571 63.2609 22.1834C63.4865 22.4097 63.7902 22.5401 64.109 22.5478Z" fill="#A2A6AE"/>
<path id="Vector_6" d="M54.4202 26.6077C54.7388 26.6 55.0423 26.4694 55.2676 26.2431C55.493 26.0168 55.6229 25.712 55.6306 25.3921V5.93633C55.6306 5.61393 55.5031 5.30473 55.2761 5.07675C55.0491 4.84878 54.7412 4.7207 54.4202 4.7207C54.0992 4.7207 53.7914 4.84878 53.5644 5.07675C53.3374 5.30473 53.2099 5.61393 53.2099 5.93633V25.3864C53.2161 25.7073 53.3454 26.0135 53.5709 26.241C53.7964 26.4686 54.1007 26.5999 54.4202 26.6077Z" fill="#A2A6AE"/>
<path id="Vector_7" d="M59.2636 30.657C59.5825 30.6488 59.8862 30.5179 60.1118 30.2913C60.3374 30.0648 60.4677 29.7598 60.4758 29.4395V1.87261C60.4635 1.55826 60.3304 1.26093 60.1046 1.04291C59.8788 0.824895 59.5777 0.703125 59.2645 0.703125C58.9513 0.703125 58.6502 0.824895 58.4244 1.04291C58.1986 1.26093 58.0655 1.55826 58.0532 1.87261V29.4395C58.0608 29.7596 58.1908 30.0646 58.4161 30.2912C58.6414 30.5178 58.9448 30.6488 59.2636 30.657Z" fill="#A2A6AE"/>
<path id="Vector_8" d="M49.5767 21.7379C49.8955 21.7297 50.1989 21.5987 50.4242 21.3721C50.6495 21.1455 50.7795 20.8405 50.7871 20.5204V10.7916C50.7747 10.4772 50.6417 10.1799 50.4159 9.96186C50.1901 9.74384 49.889 9.62207 49.5758 9.62207C49.2626 9.62207 48.9615 9.74384 48.7357 9.96186C48.5099 10.1799 48.3768 10.4772 48.3645 10.7916V20.5204C48.3726 20.8407 48.5029 21.1457 48.7285 21.3722C48.9541 21.5988 49.2578 21.7297 49.5767 21.7379Z" fill="#A2A6AE"/>
<path id="Vector_9" d="M44.7335 18.8987C45.0521 18.891 45.3555 18.7605 45.5808 18.5341C45.8062 18.3078 45.9362 18.0031 45.9438 17.6831V13.6285C45.9315 13.3141 45.7985 13.0168 45.5726 12.7988C45.3468 12.5807 45.0458 12.459 44.7325 12.459C44.4193 12.459 44.1182 12.5807 43.8924 12.7988C43.6666 13.0168 43.5336 13.3141 43.5212 13.6285V17.6831C43.5289 18.0034 43.6591 18.3084 43.8849 18.5348C44.1106 18.7611 44.4145 18.8915 44.7335 18.8987Z" fill="#A2A6AE"/>
<path id="Vector_10" d="M39.8881 19.711C40.2069 19.7033 40.5105 19.5728 40.7362 19.3465C40.9618 19.1203 41.0922 18.8155 41.1004 18.4954V12.8193C41.1068 12.6555 41.0803 12.492 41.0223 12.3388C40.9643 12.1856 40.8761 12.0457 40.763 11.9275C40.6499 11.8093 40.5142 11.7153 40.364 11.651C40.2138 11.5868 40.0523 11.5537 39.889 11.5537C39.7258 11.5537 39.5643 11.5868 39.4141 11.651C39.2639 11.7153 39.1282 11.8093 39.0151 11.9275C38.902 12.0457 38.8138 12.1856 38.7558 12.3388C38.6978 12.492 38.6713 12.6555 38.6777 12.8193V18.4954C38.6854 18.8153 38.8154 19.1201 39.0407 19.3464C39.2661 19.5727 39.5695 19.7033 39.8881 19.711Z" fill="#A2A6AE"/>
<path id="Vector_11" d="M35.0523 20.9186C35.3709 20.9109 35.6743 20.7804 35.8997 20.5541C36.125 20.3277 36.255 20.023 36.2627 19.703V11.6014C36.2627 11.4417 36.2314 11.2837 36.1706 11.1362C36.1097 10.9887 36.0206 10.8547 35.9082 10.7418C35.7958 10.6289 35.6624 10.5394 35.5155 10.4783C35.3687 10.4172 35.2113 10.3857 35.0523 10.3857C34.8934 10.3857 34.736 10.4172 34.5891 10.4783C34.4423 10.5394 34.3088 10.6289 34.1964 10.7418C34.0841 10.8547 33.9949 10.9887 33.9341 11.1362C33.8732 11.2837 33.8419 11.4417 33.8419 11.6014V19.7106C33.8515 20.0293 33.9823 20.3321 34.2075 20.5568C34.4326 20.7815 34.735 20.911 35.0523 20.9186Z" fill="#A2A6AE"/>
<path id="Vector_12" d="M30.2012 18.4952C30.52 18.487 30.8234 18.356 31.0487 18.1294C31.2741 17.9028 31.404 17.5978 31.4116 17.2776V14.0347C31.3993 13.7204 31.2662 13.423 31.0404 13.205C30.8146 12.987 30.5135 12.8652 30.2003 12.8652C29.8871 12.8652 29.586 12.987 29.3602 13.205C29.1344 13.423 29.0013 13.7204 28.989 14.0347V17.2776C28.9971 17.598 29.1274 17.9029 29.353 18.1295C29.5786 18.3561 29.8823 18.487 30.2012 18.4952Z" fill="#A2A6AE"/>
<path id="Vector_13" d="M25.3561 18.0888C25.6753 18.0815 25.9795 17.9509 26.2053 17.7241C26.4311 17.4974 26.5612 17.1919 26.5684 16.8712V14.44C26.556 14.1256 26.423 13.8283 26.1972 13.6103C25.9713 13.3923 25.6703 13.2705 25.357 13.2705C25.0438 13.2705 24.7427 13.3923 24.5169 13.6103C24.2911 13.8283 24.1581 14.1256 24.1457 14.44V16.8712C24.1529 17.1916 24.2827 17.4968 24.5081 17.7235C24.7335 17.9502 25.0372 18.081 25.3561 18.0888Z" fill="#A2A6AE"/>
<path id="Vector_14" d="M20.5126 16.8721H20.7543C20.7982 16.8775 20.8428 16.8732 20.8849 16.8595C20.927 16.8457 20.9656 16.8228 20.9979 16.7924C21.0772 16.7924 21.1584 16.7109 21.2396 16.7109C21.3208 16.6293 21.4001 16.6293 21.4001 16.5478L21.5625 16.3866C21.5625 16.305 21.6437 16.2235 21.6437 16.1438C21.6437 16.0642 21.7249 15.9807 21.7249 15.8992V15.6565C21.7035 15.3343 21.5908 15.025 21.4001 14.7651L21.2396 14.602C21.2075 14.5718 21.1693 14.549 21.1275 14.5352C21.0858 14.5215 21.0415 14.5171 20.9979 14.5224C20.9167 14.5224 20.8355 14.4408 20.7543 14.4408H20.2709C20.2271 14.4352 20.1826 14.4397 20.1407 14.4538C20.0989 14.4679 20.0607 14.4914 20.0292 14.5224C19.948 14.5224 19.8668 14.602 19.7856 14.602C19.7437 14.6052 19.7044 14.6234 19.6749 14.6534C19.6454 14.6834 19.6277 14.723 19.6251 14.7651C19.5147 14.8845 19.4293 15.0249 19.3738 15.178C19.3184 15.3311 19.294 15.4938 19.3022 15.6565V15.8992C19.2967 15.9435 19.3012 15.9884 19.3153 16.0307C19.3293 16.0731 19.3526 16.1117 19.3834 16.1438C19.3834 16.2235 19.4627 16.305 19.4627 16.3866L19.6251 16.5478L19.7856 16.7109C19.8668 16.7109 19.948 16.7924 20.0292 16.7924C20.1104 16.7924 20.1897 16.8721 20.2709 16.8721H20.5126Z" fill="#A2A6AE"/>
<path id="Vector_15" d="M15.6693 17.2771C15.9879 17.2694 16.2913 17.1389 16.5166 16.9125C16.742 16.6862 16.872 16.3815 16.8796 16.0615V15.2498C16.8796 14.9274 16.7521 14.6182 16.5251 14.3902C16.2981 14.1623 15.9903 14.0342 15.6693 14.0342C15.3482 14.0342 15.0404 14.1623 14.8134 14.3902C14.5864 14.6182 14.4589 14.9274 14.4589 15.2498V16.0615C14.4666 16.3815 14.5965 16.6862 14.8219 16.9125C15.0472 17.1389 15.3507 17.2694 15.6693 17.2771Z" fill="#A2A6AE"/>
<path id="Vector_16" d="M5.97304 17.2778C6.29182 17.2702 6.59546 17.1397 6.82111 16.9134C7.04676 16.6871 7.17716 16.3824 7.1853 16.0622V15.2505C7.17294 14.9362 7.03992 14.6389 6.8141 14.4208C6.58829 14.2028 6.28722 14.0811 5.97399 14.0811C5.66076 14.0811 5.35969 14.2028 5.13387 14.4208C4.90806 14.6389 4.77503 14.9362 4.76267 15.2505V16.0622C4.77034 16.3822 4.90032 16.6869 5.12566 16.9133C5.35101 17.1396 5.65444 17.2701 5.97304 17.2778Z" fill="#A2A6AE"/>
<path id="Vector_17" d="M10.8258 16.8719C11.1463 16.8511 11.4543 16.7386 11.7132 16.5476L11.8737 16.3864C11.8737 16.3048 11.9549 16.2233 11.9549 16.1436C11.9549 16.064 12.0361 15.9806 12.0361 15.899V15.6563C12.0145 15.3345 11.9026 15.0254 11.7132 14.7649C11.6321 14.6834 11.5508 14.6834 11.5508 14.6018C11.519 14.5714 11.4807 14.5484 11.4389 14.5346C11.3971 14.5209 11.3528 14.5166 11.3092 14.5222C11.228 14.5222 11.1486 14.4406 11.0675 14.4406H10.5822C10.5384 14.4353 10.494 14.4399 10.4522 14.454C10.4103 14.4681 10.3722 14.4914 10.3405 14.5222C10.2593 14.5222 10.18 14.6018 10.0988 14.6018C10.0566 14.6045 10.0168 14.6226 9.98692 14.6526C9.95703 14.6826 9.93906 14.7225 9.93638 14.7649C9.82601 14.8843 9.74057 15.0247 9.68512 15.1778C9.62966 15.3309 9.60531 15.4936 9.6135 15.6563V15.899C9.60804 15.9433 9.6125 15.9882 9.62655 16.0306C9.64059 16.0729 9.66388 16.1115 9.69469 16.1436C9.69469 16.2233 9.77589 16.3048 9.77589 16.3864L9.93827 16.5571L10.1007 16.7202C10.1819 16.7202 10.2612 16.8017 10.3424 16.8017C10.4236 16.8017 10.5048 16.8814 10.5841 16.8814L10.8258 16.8719Z" fill="#A2A6AE"/>
<path id="Vector_18" d="M1.13704 16.8714C1.45763 16.8506 1.76559 16.7381 2.02453 16.5471L2.18691 16.3859C2.19543 16.3241 2.22396 16.2668 2.26811 16.2228C2.26811 16.1432 2.34741 16.0616 2.34741 15.9801V15.7373C2.32672 15.4154 2.21468 15.1061 2.02453 14.846C1.54113 14.3586 0.732957 14.3586 0.325093 14.846C0.214361 14.9651 0.128682 15.1055 0.0732017 15.2586C0.0177212 15.4118 -0.00642514 15.5746 0.00219584 15.7373V15.9877C-0.00334883 16.0315 0.00089097 16.076 0.0146084 16.118C0.0283258 16.16 0.0511732 16.1984 0.0814996 16.2304C0.0900126 16.2923 0.118543 16.3496 0.162694 16.3935C0.243889 16.4751 0.243897 16.5547 0.325093 16.5547C0.547901 16.7567 0.836874 16.8695 1.13704 16.8714Z" fill="#A2A6AE"/>
</g>
</g>
</svg>
