<svg width="24" height="25" viewBox="0 0 24 25" fill="none" xmlns="http://www.w3.org/2000/svg">
<rect y="0.342773" width="24" height="24" rx="12" fill="#F4F4F5"/>
<path d="M6.02966 12.9426H9.31642C9.42382 14.9039 10.0545 16.7258 11.0713 18.2712C8.39264 17.8549 6.30013 15.6668 6.02966 12.9426ZM6.02966 11.7426C6.30013 9.01846 8.39264 6.83031 11.0713 6.41406C10.0545 7.95939 9.42382 9.78132 9.31642 11.7426H6.02966ZM17.9704 11.7426H14.6836C14.5762 9.78132 13.9456 7.95939 12.9288 6.41406C15.6075 6.83031 17.7 9.01846 17.9704 11.7426ZM17.9704 12.9426C17.7 15.6668 15.6075 17.8549 12.9288 18.2712C13.9456 16.7258 14.5762 14.9039 14.6836 12.9426H17.9704ZM10.5185 12.9426H13.4816C13.3786 14.6123 12.8488 16.1666 12 17.4976C11.1512 16.1666 10.6214 14.6123 10.5185 12.9426ZM10.5185 11.7426C10.6214 10.0729 11.1512 8.51868 12 7.1877C12.8488 8.51868 13.3786 10.0729 13.4816 11.7426H10.5185Z" fill="#454954"/>
</svg>
